#tb 0: 32768/982057
0,          0,          0,        1,   126720, 0x689de87e
0,          1,          1,        1,   126720, 0x3db9e91c
0,          2,          2,        1,   126720, 0x3db9e91c
0,          3,          3,        1,   126720, 0x3db9e91c
0,          4,          4,        1,   126720, 0xfa6ae95e
0,          5,          5,        1,   126720, 0x5bcbf0e6
0,          6,          6,        1,   126720, 0x94a0f126
0,          7,          7,        1,   126720, 0x0250f106
0,          8,          8,        1,   126720, 0xcf6ab4bc
0,          9,          9,        1,   126720, 0x429eb57c
0,         10,         10,        1,   126720, 0x3bf0b5bc
0,         11,         11,        1,   126720, 0xcaedb591
0,         12,         12,        1,   126720, 0xa492b5ec
0,         13,         13,        1,   126720, 0x2431b85c
0,         14,         14,        1,   126720, 0x8283b8dc
0,         15,         15,        1,   126720, 0xd71bb871
0,         16,         16,        1,   126720, 0x698eb5cc
0,         17,         17,        1,   126720, 0x4719aa98
0,         18,         18,        1,   126720, 0x9ca1962c
0,         19,         19,        1,   126720, 0x18cda460
0,         20,         20,        1,   126720, 0xc230b716
0,         21,         21,        1,   126720, 0x8451a4e2
0,         22,         22,        1,   126720, 0x59e9a7ea
0,         23,         23,        1,   126720, 0xc77ca73d
0,         24,         24,        1,   126720, 0x725fb976
0,         25,         25,        1,   126720, 0xb30da3b3
0,         26,         26,        1,   126720, 0x7af2ea86
0,         27,         27,        1,   126720, 0x40d4b4eb
0,         28,         28,        1,   126720, 0x49d00307
0,         29,         29,        1,   126720, 0x0654849c
0,         30,         30,        1,   126720, 0xe46d0107
0,         31,         31,        1,   126720, 0xa483b963
0,         32,         32,        1,   126720, 0xd0e903f0
0,         33,         33,        1,   126720, 0x964ed592
0,         34,         34,        1,   126720, 0x23fbdb3c
0,         35,         35,        1,   126720, 0x59fdace5
0,         36,         36,        1,   126720, 0xb1e37954
0,         37,         37,        1,   126720, 0x8ed9c554
0,         38,         38,        1,   126720, 0xe3c4b39f
0,         39,         39,        1,   126720, 0xfd17e0ce
0,         40,         40,        1,   126720, 0xf26e1dcc
0,         41,         41,        1,   126720, 0x13cc783c
0,         42,         42,        1,   126720, 0x47ad47a1
0,         43,         43,        1,   126720, 0x427c8b0d
0,         44,         44,        1,   126720, 0x59d99901
0,         45,         45,        1,   126720, 0xc40707da
0,         46,         46,        1,   126720, 0xcd060dce
0,         47,         47,        1,   126720, 0xed4024f6
0,         48,         48,        1,   126720, 0x7decd2b4
0,         49,         49,        1,   126720, 0xd1d2e730
0,         50,         50,        1,   126720, 0x77cee457
0,         51,         51,        1,   126720, 0xe78d02c0
0,         52,         52,        1,   126720, 0xad0beb29
0,         53,         53,        1,   126720, 0xc414eea2
0,         54,         54,        1,   126720, 0x6a15f17d
0,         55,         55,        1,   126720, 0x516027f6
0,         56,         56,        1,   126720, 0x4eda9dce
0,         57,         57,        1,   126720, 0x7d9bdba3
0,         58,         58,        1,   126720, 0x7aa3d5c0
0,         59,         59,        1,   126720, 0x7c7a04f9
0,         60,         60,        1,   126720, 0x3e8fb6cc
0,         61,         61,        1,   126720, 0xd5474916
0,         62,         62,        1,   126720, 0xf3f62bab
0,         63,         63,        1,   126720, 0x2f054987
0,         64,         64,        1,   126720, 0x974c2e81
0,         65,         65,        1,   126720, 0xe7e28a97
0,         66,         66,        1,   126720, 0x45e38b41
0,         67,         67,        1,   126720, 0x169c7f19
0,         68,         68,        1,   126720, 0x91d90ee8
0,         69,         69,        1,   126720, 0xdd653e24
0,         70,         70,        1,   126720, 0x0da598c4
0,         71,         71,        1,   126720, 0x687e62cc
0,         72,         72,        1,   126720, 0x7631232d
0,         73,         73,        1,   126720, 0xbd1ea826
0,         74,         74,        1,   126720, 0xb55f7f4b
0,         75,         75,        1,   126720, 0x923f3fc9
0,         76,         76,        1,   126720, 0x15515301
0,         77,         77,        1,   126720, 0x9ee066e5
0,         78,         78,        1,   126720, 0x7c21664b
0,         79,         79,        1,   126720, 0x36849100
0,         80,         80,        1,   126720, 0x08b1f61a
0,         81,         81,        1,   126720, 0x5bfca6e2
0,         82,         82,        1,   126720, 0x929f60e3
0,         83,         83,        1,   126720, 0xa2b55c29
0,         84,         84,        1,   126720, 0x68bd3ff3
0,         85,         85,        1,   126720, 0x30db5b29
0,         86,         86,        1,   126720, 0x00578f9b
0,         87,         87,        1,   126720, 0x18368642
0,         88,         88,        1,   126720, 0xbcb83a80
0,         89,         89,        1,   126720, 0x90f36b72
0,         90,         90,        1,   126720, 0x85e46522
0,         91,         91,        1,   126720, 0x2429660a
0,         92,         92,        1,   126720, 0xf283dfe2
0,         93,         93,        1,   126720, 0x896b27dc
0,         94,         94,        1,   126720, 0x5af4f961
0,         95,         95,        1,   126720, 0x31897085
0,         96,         96,        1,   126720, 0x441ce33e
0,         97,         97,        1,   126720, 0x903f8009
0,         98,         98,        1,   126720, 0xbdf33dba
0,         99,         99,        1,   126720, 0x8a364f36
0,        100,        100,        1,   126720, 0xda5513f6
0,        101,        101,        1,   126720, 0xd60012b3
0,        102,        102,        1,   126720, 0x67bce7be
0,        103,        103,        1,   126720, 0x697e6174
0,        104,        104,        1,   126720, 0xbe3e3e90
0,        105,        105,        1,   126720, 0xf3e4bba6
0,        106,        106,        1,   126720, 0x8124a679
0,        107,        107,        1,   126720, 0x58d1acde
0,        108,        108,        1,   126720, 0xd8a15ba3
